<svg width="574" height="648" viewBox="0 0 574 648" fill="none" xmlns="http://www.w3.org/2000/svg">
<rect width="574" height="648" fill="#E5E5E5"/>
<rect width="1440" height="900" transform="translate(-756 -126)" fill="white"/>
<rect x="2" y="2" width="570" height="644" rx="65" fill="white"/>
<rect x="1" y="1" width="572" height="646" rx="66" stroke="#1A3B58" stroke-opacity="0.24" stroke-width="2"/>
<path d="M64.95 93.93V112H74.024V109.608H67.914V93.93H64.95ZM90.1527 104.824C90.1527 100.326 86.9287 97.44 82.8467 97.44C78.7647 97.44 75.5407 100.326 75.5407 104.824C75.5407 109.322 78.6347 112.234 82.7167 112.234C86.8247 112.234 90.1527 109.322 90.1527 104.824ZM78.5567 104.824C78.5567 101.574 80.5587 100.014 82.7947 100.014C85.0047 100.014 87.1107 101.574 87.1107 104.824C87.1107 108.074 84.9267 109.66 82.7167 109.66C80.4807 109.66 78.5567 108.074 78.5567 104.824ZM92.0948 104.772C92.0948 109.192 95.0848 112.234 98.8548 112.234C101.195 112.234 102.911 111.064 103.821 109.842V112.234C103.821 115.094 102.105 116.498 99.8168 116.498C97.7628 116.498 96.1768 115.484 95.7348 114.002H92.7968C93.1608 117.174 95.9948 119.072 99.8168 119.072C104.289 119.072 106.811 116.134 106.811 112.234V97.674H103.821V99.754C102.937 98.532 101.195 97.44 98.8548 97.44C95.0848 97.44 92.0948 100.352 92.0948 104.772ZM103.821 104.824C103.821 107.918 101.715 109.66 99.4788 109.66C97.2688 109.66 95.1368 107.866 95.1368 104.772C95.1368 101.678 97.2688 100.014 99.4788 100.014C101.715 100.014 103.821 101.756 103.821 104.824ZM117.458 112H120.422V93.93H117.458V112ZM134.479 112H137.417V103.55C137.417 99.546 134.895 97.44 131.541 97.44C129.825 97.44 128.239 98.142 127.277 99.312V97.674H124.313V112H127.277V103.992C127.277 101.366 128.707 100.014 130.891 100.014C133.049 100.014 134.479 101.366 134.479 103.992V112Z" fill="#1A3B58"/>
<path d="M176.78 107.06C176.78 100.352 167.004 103.264 167.004 98.584C167.004 96.634 168.538 95.62 170.488 95.672C172.698 95.698 173.842 97.076 173.998 98.298H176.598C176.312 95.542 174.05 93.644 170.592 93.644C167.004 93.644 164.586 95.672 164.586 98.662C164.586 105.396 174.388 102.276 174.388 107.164C174.388 108.88 173.036 110.18 170.748 110.18C168.226 110.18 167.16 108.672 167.004 107.164H164.482C164.534 110.154 167.108 112.182 170.748 112.182C174.674 112.182 176.78 109.634 176.78 107.06ZM180.262 112H182.628V97.752H180.262V112ZM181.484 95.438C182.342 95.438 183.044 94.736 183.044 93.826C183.044 92.916 182.342 92.214 181.484 92.214C180.574 92.214 179.872 92.916 179.872 93.826C179.872 94.736 180.574 95.438 181.484 95.438ZM185.776 104.824C185.776 109.244 188.714 112.234 192.536 112.234C195.136 112.234 196.982 110.856 197.84 109.322V112.312C197.84 115.354 195.942 116.966 193.42 116.966C191.08 116.966 189.39 115.796 188.87 114.08H186.53C186.998 117.122 189.676 119.02 193.42 119.02C197.606 119.02 200.232 116.238 200.232 112.312V97.752H197.84V100.352C197.008 98.818 195.136 97.518 192.536 97.518C188.714 97.518 185.776 100.378 185.776 104.824ZM197.84 104.85C197.84 108.204 195.604 110.154 193.004 110.154C190.404 110.154 188.194 108.178 188.194 104.824C188.194 101.47 190.404 99.572 193.004 99.572C195.604 99.572 197.84 101.548 197.84 104.85ZM214.657 112H216.997V103.602C216.997 99.52 214.475 97.492 211.173 97.492C209.249 97.492 207.533 98.298 206.597 99.78V97.752H204.231V112H206.597V104.122C206.597 101.054 208.261 99.546 210.679 99.546C213.071 99.546 214.657 101.028 214.657 103.94V112ZM240.429 97.752H238.063V105.578C238.063 108.646 236.425 110.154 233.981 110.154C231.589 110.154 230.003 108.672 230.003 105.786V97.752H227.663V106.098C227.663 110.18 230.237 112.208 233.513 112.208C235.411 112.208 237.153 111.376 238.063 109.894V112H240.429V97.752ZM246.79 100.378V97.752H244.424V118.76H246.79V109.374C247.674 110.83 249.52 112.234 252.12 112.234C255.942 112.234 258.88 109.244 258.88 104.824C258.88 100.378 255.942 97.518 252.12 97.518C249.52 97.518 247.648 98.87 246.79 100.378ZM256.462 104.824C256.462 108.178 254.252 110.154 251.626 110.154C249.052 110.154 246.79 108.204 246.79 104.85C246.79 101.548 249.052 99.572 251.626 99.572C254.252 99.572 256.462 101.47 256.462 104.824Z" fill="#1A3B58" fill-opacity="0.33"/>
<path d="M160.56 529.04C160.56 529.89 160.05 530.51 158.91 530.51H157.5V527.6H158.9C160.08 527.6 160.56 528.16 160.56 529.04ZM156.8 527.01V534H157.5V531.08H158.79L160.52 534H161.36L159.56 531.03C160.74 530.81 161.28 530 161.28 529.04C161.28 527.89 160.52 527.01 158.9 527.01H156.8ZM164.999 529.06C166.009 529.06 166.929 529.7 166.899 530.97H163.059C163.139 529.7 164.009 529.06 164.999 529.06ZM167.529 532.27H166.789C166.589 533 165.959 533.49 165.029 533.49C164.009 533.49 163.119 532.82 163.059 531.54H167.589C167.609 531.35 167.609 531.21 167.609 530.99C167.609 529.6 166.629 528.46 165.029 528.46C163.459 528.46 162.349 529.53 162.349 531.27C162.349 533 163.479 534.08 165.029 534.08C166.399 534.08 167.279 533.3 167.529 532.27ZM176.87 534H177.56V530.8C177.56 529.2 176.6 528.44 175.39 528.44C174.52 528.44 173.72 528.89 173.42 529.78C173.09 528.87 172.31 528.44 171.4 528.44C170.63 528.44 169.94 528.79 169.59 529.48V528.54H168.89V534H169.59V531.04C169.59 529.71 170.28 529.05 171.28 529.05C172.25 529.05 172.89 529.67 172.89 530.88V534H173.58V531.04C173.58 529.71 174.28 529.05 175.27 529.05C176.24 529.05 176.87 529.67 176.87 530.88V534ZM181.444 529.06C182.454 529.06 183.374 529.7 183.344 530.97H179.504C179.584 529.7 180.454 529.06 181.444 529.06ZM183.974 532.27H183.234C183.034 533 182.404 533.49 181.474 533.49C180.454 533.49 179.564 532.82 179.504 531.54H184.034C184.054 531.35 184.054 531.21 184.054 530.99C184.054 529.6 183.074 528.46 181.474 528.46C179.904 528.46 178.794 529.53 178.794 531.27C178.794 533 179.924 534.08 181.474 534.08C182.844 534.08 183.724 533.3 183.974 532.27ZM193.315 534H194.005V530.8C194.005 529.2 193.045 528.44 191.835 528.44C190.965 528.44 190.165 528.89 189.865 529.78C189.535 528.87 188.755 528.44 187.845 528.44C187.075 528.44 186.385 528.79 186.035 529.48V528.54H185.335V534H186.035V531.04C186.035 529.71 186.725 529.05 187.725 529.05C188.695 529.05 189.335 529.67 189.335 530.88V534H190.025V531.04C190.025 529.71 190.725 529.05 191.715 529.05C192.685 529.05 193.315 529.67 193.315 530.88V534ZM196.25 529.75V526.6H195.56V534H196.25V532.8C196.58 533.51 197.33 534.08 198.42 534.08C199.91 534.08 201.02 532.97 201.02 531.26C201.02 529.55 199.92 528.46 198.42 528.46C197.35 528.46 196.59 529.03 196.25 529.75ZM200.31 531.26C200.31 532.64 199.43 533.47 198.28 533.47C197.17 533.47 196.25 532.63 196.25 531.27C196.25 529.91 197.17 529.07 198.28 529.07C199.43 529.07 200.31 529.87 200.31 531.26ZM204.638 529.06C205.648 529.06 206.568 529.7 206.538 530.97H202.698C202.778 529.7 203.648 529.06 204.638 529.06ZM207.168 532.27H206.428C206.228 533 205.598 533.49 204.668 533.49C203.648 533.49 202.758 532.82 202.698 531.54H207.228C207.248 531.35 207.248 531.21 207.248 530.99C207.248 529.6 206.268 528.46 204.668 528.46C203.098 528.46 201.988 529.53 201.988 531.27C201.988 533 203.118 534.08 204.668 534.08C206.038 534.08 206.918 533.3 207.168 532.27ZM209.229 530.95C209.229 529.58 209.999 529.17 210.909 529.17H211.099V528.44C210.159 528.44 209.529 528.84 209.229 529.51V528.54H208.529V534H209.229V530.95ZM214.896 534H215.596V528.51L218.056 534H218.566L221.026 528.49V534H221.726V527.1H220.976L218.306 533.08L215.636 527.1H214.896V534ZM225.644 529.06C226.654 529.06 227.574 529.7 227.544 530.97H223.704C223.784 529.7 224.654 529.06 225.644 529.06ZM228.174 532.27H227.434C227.234 533 226.604 533.49 225.674 533.49C224.654 533.49 223.764 532.82 223.704 531.54H228.234C228.254 531.35 228.254 531.21 228.254 530.99C228.254 529.6 227.274 528.46 225.674 528.46C224.104 528.46 222.994 529.53 222.994 531.27C222.994 533 224.124 534.08 225.674 534.08C227.044 534.08 227.924 533.3 228.174 532.27Z" fill="#1A3B58" fill-opacity="0.61"/>
<path d="M146.778 523H138.222C137.55 523 137 523.55 137 524.222V532.778C137 533.45 137.55 534 138.222 534H146.778C147.45 534 148 533.45 148 532.778V524.222C148 523.55 147.45 523 146.778 523ZM141.712 531.122C141.655 531.178 141.588 531.223 141.514 531.254C141.44 531.285 141.361 531.3 141.281 531.3C141.201 531.3 141.122 531.285 141.048 531.254C140.974 531.223 140.907 531.178 140.85 531.122L138.656 528.928C138.6 528.871 138.555 528.804 138.524 528.73C138.493 528.656 138.478 528.577 138.478 528.497C138.478 528.417 138.493 528.338 138.524 528.264C138.555 528.19 138.6 528.123 138.656 528.066C138.713 528.01 138.78 527.965 138.854 527.934C138.928 527.903 139.007 527.888 139.087 527.888C139.167 527.888 139.246 527.903 139.32 527.934C139.394 527.965 139.461 528.01 139.518 528.066L141.278 529.826L145.482 525.622C145.596 525.507 145.751 525.443 145.913 525.443C146.075 525.443 146.23 525.507 146.344 525.622C146.458 525.736 146.522 525.891 146.522 526.053C146.522 526.214 146.458 526.369 146.344 526.483L141.712 531.122Z" fill="#329C89"/>
<path d="M130.819 206.358H134.725V219H137.119V206.358H141.004V204.405H130.819V206.358ZM154.454 213.204C154.454 209.571 151.85 207.24 148.553 207.24C145.256 207.24 142.652 209.571 142.652 213.204C142.652 216.837 145.151 219.189 148.448 219.189C151.766 219.189 154.454 216.837 154.454 213.204ZM145.088 213.204C145.088 210.579 146.705 209.319 148.511 209.319C150.296 209.319 151.997 210.579 151.997 213.204C151.997 215.829 150.233 217.11 148.448 217.11C146.642 217.11 145.088 215.829 145.088 213.204ZM161.477 211.671C161.477 216.06 164.816 219.126 168.932 219.126C171.977 219.126 174.602 217.614 175.715 214.758H172.838C172.061 216.312 170.675 217.047 168.932 217.047C166.034 217.047 163.934 214.968 163.934 211.671C163.934 208.374 166.034 206.316 168.932 206.316C170.675 206.316 172.061 207.051 172.838 208.605H175.715C174.602 205.749 171.977 204.216 168.932 204.216C164.816 204.216 161.477 207.303 161.477 211.671ZM189.542 213.204C189.542 209.571 186.938 207.24 183.641 207.24C180.344 207.24 177.74 209.571 177.74 213.204C177.74 216.837 180.239 219.189 183.536 219.189C186.854 219.189 189.542 216.837 189.542 213.204ZM180.176 213.204C180.176 210.579 181.793 209.319 183.599 209.319C185.384 209.319 187.085 210.579 187.085 213.204C187.085 215.829 185.321 217.11 183.536 217.11C181.73 217.11 180.176 215.829 180.176 213.204ZM200.12 219H202.493V212.175C202.493 208.941 200.456 207.24 197.747 207.24C196.361 207.24 195.08 207.807 194.303 208.752V207.429H191.909V219H194.303V212.532C194.303 210.411 195.458 209.319 197.222 209.319C198.965 209.319 200.12 210.411 200.12 212.532V219ZM205.925 215.787C205.925 218.139 207.206 219 209.264 219H211.154V217.005H209.684C208.676 217.005 208.34 216.648 208.34 215.787V209.382H211.154V207.429H208.34V204.552H205.925V207.429H204.56V209.382H205.925V215.787ZM213.36 219H215.754V207.429H213.36V219ZM214.578 205.896C215.418 205.896 216.09 205.224 216.09 204.363C216.09 203.502 215.418 202.83 214.578 202.83C213.717 202.83 213.045 203.502 213.045 204.363C213.045 205.224 213.717 205.896 214.578 205.896ZM227.108 219H229.481V212.175C229.481 208.941 227.444 207.24 224.735 207.24C223.349 207.24 222.068 207.807 221.291 208.752V207.429H218.897V219H221.291V212.532C221.291 210.411 222.446 209.319 224.21 209.319C225.953 209.319 227.108 210.411 227.108 212.532V219ZM243.014 207.429H240.62V213.876C240.62 215.997 239.465 217.089 237.701 217.089C235.958 217.089 234.803 215.997 234.803 213.876V207.429H232.43V214.233C232.43 217.467 234.488 219.168 237.197 219.168C238.562 219.168 239.864 218.601 240.62 217.614V219H243.014V207.429ZM251.045 209.256C252.83 209.256 254.237 210.39 254.279 212.175H247.874C248.126 210.348 249.428 209.256 251.045 209.256ZM256.463 215.556H253.88C253.439 216.459 252.62 217.173 251.15 217.173C249.386 217.173 248.021 216.018 247.853 214.107H256.694C256.757 213.708 256.778 213.33 256.778 212.931C256.778 209.529 254.447 207.24 251.15 207.24C247.727 207.24 245.375 209.571 245.375 213.204C245.375 216.837 247.832 219.189 251.15 219.189C253.985 219.189 255.812 217.572 256.463 215.556Z" fill="#1A3B58"/>
<line x1="131" y1="163" x2="443" y2="163" stroke="#4091DF" stroke-opacity="0.12" stroke-width="2" stroke-linecap="round"/>
<rect x="130" y="438" width="314" height="45" rx="8" fill="#329C89"/>
<path d="M263.992 454.768V466H270.312V463.888H266.728V454.768H263.992ZM280.513 461.536C280.513 458.704 278.497 456.944 275.873 456.944C273.265 456.944 271.233 458.704 271.233 461.536C271.233 464.368 273.217 466.128 275.841 466.128C278.465 466.128 280.513 464.368 280.513 461.536ZM274.017 461.536C274.017 460.016 274.881 459.312 275.873 459.312C276.833 459.312 277.729 460.016 277.729 461.536C277.729 463.04 276.817 463.76 275.841 463.76C274.849 463.76 274.017 463.04 274.017 461.536ZM281.58 461.52C281.58 464.336 283.324 466.128 285.516 466.128C286.828 466.128 287.773 465.504 288.268 464.72V465.984C288.268 467.488 287.452 468.032 286.412 468.032C285.469 468.032 284.796 467.6 284.62 466.928H281.916C282.156 469.056 283.884 470.4 286.541 470.4C289.628 470.4 291.005 468.368 291.005 465.984V457.072H288.268V458.336C287.788 457.536 286.828 456.944 285.516 456.944C283.324 456.944 281.58 458.704 281.58 461.52ZM288.268 461.536C288.268 462.96 287.357 463.744 286.316 463.744C285.293 463.744 284.364 462.944 284.364 461.52C284.364 460.096 285.293 459.328 286.316 459.328C287.357 459.328 288.268 460.112 288.268 461.536ZM296.694 466H299.43V454.768H296.694V466ZM307.733 466H310.453V460.784C310.453 458.384 309.077 456.976 307.013 456.976C305.813 456.976 304.853 457.504 304.309 458.256V457.072H301.573V466H304.309V461.152C304.309 459.936 304.981 459.264 306.021 459.264C307.061 459.264 307.733 459.936 307.733 461.152V466Z" fill="white"/>
<path d="M132.2 239.01L132.96 239L134.76 233.04L136.52 239H137.3L139.28 232.01H138.53L136.92 238.14L135.18 232.01H134.4L132.61 238.14L131.01 232.01H130.26L132.2 239.01ZM142.681 234.06C143.691 234.06 144.611 234.7 144.581 235.97H140.741C140.821 234.7 141.691 234.06 142.681 234.06ZM145.211 237.27H144.471C144.271 238 143.641 238.49 142.711 238.49C141.691 238.49 140.801 237.82 140.741 236.54H145.271C145.291 236.35 145.291 236.21 145.291 235.99C145.291 234.6 144.311 233.46 142.711 233.46C141.141 233.46 140.031 234.53 140.031 236.27C140.031 238 141.161 239.08 142.711 239.08C144.081 239.08 144.961 238.3 145.211 237.27ZM153.406 239H154.096V235.8C154.096 234.2 153.116 233.44 151.876 233.44C151.066 233.44 150.366 233.79 150.016 234.47V233.54H149.316V239H150.016V236.02C150.016 234.69 150.726 234.05 151.746 234.05C152.746 234.05 153.406 234.67 153.406 235.88V239ZM157.974 234.06C158.984 234.06 159.904 234.7 159.874 235.97H156.034C156.114 234.7 156.984 234.06 157.974 234.06ZM160.504 237.27H159.764C159.564 238 158.934 238.49 158.004 238.49C156.984 238.49 156.094 237.82 156.034 236.54H160.564C160.584 236.35 160.584 236.21 160.584 235.99C160.584 234.6 159.604 233.46 158.004 233.46C156.434 233.46 155.324 234.53 155.324 236.27C155.324 238 156.454 239.08 158.004 239.08C159.374 239.08 160.254 238.3 160.504 237.27ZM164.194 234.06C165.204 234.06 166.124 234.7 166.094 235.97H162.254C162.334 234.7 163.204 234.06 164.194 234.06ZM166.724 237.27H165.984C165.784 238 165.154 238.49 164.224 238.49C163.204 238.49 162.314 237.82 162.254 236.54H166.784C166.804 236.35 166.804 236.21 166.804 235.99C166.804 234.6 165.824 233.46 164.224 233.46C162.654 233.46 161.544 234.53 161.544 236.27C161.544 238 162.674 239.08 164.224 239.08C165.594 239.08 166.474 238.3 166.724 237.27ZM167.765 236.26C167.765 237.97 168.875 239.08 170.375 239.08C171.455 239.08 172.215 238.5 172.535 237.78V239H173.235V231.6H172.535V234.72C172.185 234 171.365 233.46 170.385 233.46C168.875 233.46 167.765 234.55 167.765 236.26ZM172.535 236.27C172.535 237.63 171.625 238.47 170.505 238.47C169.355 238.47 168.475 237.64 168.475 236.26C168.475 234.87 169.355 234.07 170.505 234.07C171.625 234.07 172.535 234.91 172.535 236.27ZM179.557 238.2L177.697 233.54H176.927L179.167 238.97L178.107 241.57H178.837L182.077 233.54H181.357L179.557 238.2ZM188.167 236.27C188.167 234.53 186.977 233.46 185.437 233.46C183.907 233.46 182.707 234.53 182.707 236.27C182.707 238 183.877 239.08 185.417 239.08C186.957 239.08 188.167 238 188.167 236.27ZM183.417 236.27C183.417 234.77 184.387 234.07 185.427 234.07C186.467 234.07 187.447 234.77 187.447 236.27C187.447 237.77 186.447 238.47 185.417 238.47C184.377 238.47 183.417 237.77 183.417 236.27ZM194.173 233.54H193.473V236.51C193.473 237.84 192.763 238.48 191.743 238.48C190.743 238.48 190.083 237.86 190.083 236.65V233.54H189.393V236.73C189.393 238.33 190.373 239.09 191.613 239.09C192.423 239.09 193.143 238.73 193.473 238.04V239H194.173V233.54ZM196.471 235.95C196.471 234.58 197.241 234.17 198.151 234.17H198.341V233.44C197.401 233.44 196.771 233.84 196.471 234.51V233.54H195.771V239H196.471V235.95ZM206.708 232.01V237.88L202.838 232.01H202.138V239H202.838V233.12L206.708 239H207.408V232.01H206.708ZM208.673 236.26C208.673 237.97 209.783 239.08 211.273 239.08C212.363 239.08 213.123 238.49 213.443 237.79V239H214.143V233.54H213.443V234.74C213.133 234.05 212.383 233.46 211.283 233.46C209.783 233.46 208.673 234.55 208.673 236.26ZM213.443 236.27C213.443 237.63 212.533 238.47 211.413 238.47C210.263 238.47 209.383 237.64 209.383 236.26C209.383 234.87 210.263 234.07 211.413 234.07C212.533 234.07 213.443 234.91 213.443 236.27ZM223.721 239H224.411V235.8C224.411 234.2 223.451 233.44 222.241 233.44C221.371 233.44 220.571 233.89 220.271 234.78C219.941 233.87 219.161 233.44 218.251 233.44C217.481 233.44 216.791 233.79 216.441 234.48V233.54H215.741V239H216.441V236.04C216.441 234.71 217.131 234.05 218.131 234.05C219.101 234.05 219.741 234.67 219.741 235.88V239H220.431V236.04C220.431 234.71 221.131 234.05 222.121 234.05C223.091 234.05 223.721 234.67 223.721 235.88V239ZM228.296 234.06C229.306 234.06 230.226 234.7 230.196 235.97H226.356C226.436 234.7 227.306 234.06 228.296 234.06ZM230.826 237.27H230.086C229.886 238 229.256 238.49 228.326 238.49C227.306 238.49 226.416 237.82 226.356 236.54H230.886C230.906 236.35 230.906 236.21 230.906 235.99C230.906 234.6 229.926 233.46 228.326 233.46C226.756 233.46 225.646 234.53 225.646 236.27C225.646 238 226.776 239.08 228.326 239.08C229.696 239.08 230.576 238.3 230.826 237.27ZM238.921 233.45C238.961 232.53 238.261 231.9 237.261 231.9C236.191 231.9 235.501 232.52 235.501 233.4C235.501 233.92 235.701 234.34 236.171 234.85C235.091 235.27 234.521 236.02 234.521 237C234.521 238.28 235.491 239.12 236.901 239.12C237.881 239.12 238.621 238.77 239.301 238.03L240.251 239H241.161L239.701 237.53C239.881 237.28 240.061 237 240.241 236.69L241.001 235.38H240.251L239.611 236.45C239.481 236.67 239.361 236.87 239.231 237.05L236.931 234.72C236.451 234.21 236.201 233.84 236.201 233.39C236.201 232.86 236.611 232.48 237.231 232.48C237.771 232.48 238.231 232.82 238.221 233.45H238.921ZM236.901 238.51C235.911 238.51 235.221 237.86 235.221 236.98C235.221 236.21 235.661 235.65 236.611 235.3L238.841 237.56C238.281 238.21 237.691 238.51 236.901 238.51ZM248.513 232H244.863V239H248.513V238.42H245.563V235.77H248.213V235.19H245.563V232.58H248.513V232ZM257.872 239H258.562V235.8C258.562 234.2 257.602 233.44 256.392 233.44C255.522 233.44 254.722 233.89 254.422 234.78C254.092 233.87 253.312 233.44 252.402 233.44C251.632 233.44 250.942 233.79 250.592 234.48V233.54H249.892V239H250.592V236.04C250.592 234.71 251.282 234.05 252.282 234.05C253.252 234.05 253.892 234.67 253.892 235.88V239H254.582V236.04C254.582 234.71 255.282 234.05 256.272 234.05C257.242 234.05 257.872 234.67 257.872 235.88V239ZM259.796 236.26C259.796 237.97 260.906 239.08 262.396 239.08C263.486 239.08 264.246 238.49 264.566 237.79V239H265.266V233.54H264.566V234.74C264.256 234.05 263.506 233.46 262.406 233.46C260.906 233.46 259.796 234.55 259.796 236.26ZM264.566 236.27C264.566 237.63 263.656 238.47 262.536 238.47C261.386 238.47 260.506 237.64 260.506 236.26C260.506 234.87 261.386 234.07 262.536 234.07C263.656 234.07 264.566 234.91 264.566 236.27ZM266.864 239H267.564V233.54H266.864V239ZM267.214 232.51C267.494 232.51 267.724 232.29 267.724 231.99C267.724 231.69 267.494 231.48 267.214 231.48C266.934 231.48 266.704 231.69 266.704 231.99C266.704 232.29 266.934 232.51 267.214 232.51ZM269.15 239H269.85V231.6H269.15V239Z" fill="#999999"/>
<rect x="130.5" y="275.5" width="313" height="44" rx="7.5" fill="white" stroke="#CBDBEA"/>
<path d="M155.23 293.2H150.12V303H155.23V302.188H151.1V298.478H154.81V297.666H151.1V294.012H155.23V293.2ZM168.333 303H169.299V298.52C169.299 296.28 167.955 295.216 166.261 295.216C165.043 295.216 163.923 295.846 163.503 297.092C163.041 295.818 161.949 295.216 160.675 295.216C159.597 295.216 158.631 295.706 158.141 296.672V295.356H157.161V303H158.141V298.856C158.141 296.994 159.107 296.07 160.507 296.07C161.865 296.07 162.761 296.938 162.761 298.632V303H163.727V298.856C163.727 296.994 164.707 296.07 166.093 296.07C167.451 296.07 168.333 296.938 168.333 298.632V303ZM171.027 299.164C171.027 301.558 172.581 303.112 174.667 303.112C176.193 303.112 177.257 302.286 177.705 301.306V303H178.685V295.356H177.705V297.036C177.271 296.07 176.221 295.244 174.681 295.244C172.581 295.244 171.027 296.77 171.027 299.164ZM177.705 299.178C177.705 301.082 176.431 302.258 174.863 302.258C173.253 302.258 172.021 301.096 172.021 299.164C172.021 297.218 173.253 296.098 174.863 296.098C176.431 296.098 177.705 297.274 177.705 299.178ZM180.923 303H181.903V295.356H180.923V303ZM181.413 293.914C181.805 293.914 182.127 293.606 182.127 293.186C182.127 292.766 181.805 292.472 181.413 292.472C181.021 292.472 180.699 292.766 180.699 293.186C180.699 293.606 181.021 293.914 181.413 293.914ZM184.122 303H185.102V292.64H184.122V303Z" fill="#B7C0C9"/>
<rect x="130.5" y="354.5" width="313" height="44" rx="7.5" fill="white" stroke="#CBDBEA"/>
<path d="M151.1 377.988V374.04H153.074C154.726 374.04 155.37 374.768 155.37 376.028C155.37 377.232 154.726 377.988 153.074 377.988H151.1ZM156.378 376.028C156.378 374.418 155.342 373.214 153.074 373.214H150.12V383H151.1V378.828H153.074C155.37 378.828 156.378 377.61 156.378 376.028ZM157.574 379.164C157.574 381.558 159.128 383.112 161.214 383.112C162.74 383.112 163.804 382.286 164.252 381.306V383H165.232V375.356H164.252V377.036C163.818 376.07 162.768 375.244 161.228 375.244C159.128 375.244 157.574 376.77 157.574 379.164ZM164.252 379.178C164.252 381.082 162.978 382.258 161.41 382.258C159.8 382.258 158.568 381.096 158.568 379.164C158.568 377.218 159.8 376.098 161.41 376.098C162.978 376.098 164.252 377.274 164.252 379.178ZM172.762 380.97C172.72 378.268 168.198 379.374 168.198 377.302C168.198 376.63 168.842 376.084 169.864 376.084C171.026 376.084 171.656 376.728 171.712 377.582H172.692C172.608 376.112 171.53 375.244 169.892 375.244C168.282 375.244 167.204 376.182 167.204 377.316C167.204 380.186 171.796 379.08 171.796 380.97C171.796 381.698 171.18 382.286 170.088 382.286C168.842 382.286 168.114 381.684 168.03 380.844H167.022C167.148 382.244 168.366 383.112 170.102 383.112C171.684 383.112 172.762 382.202 172.762 380.97ZM179.898 380.97C179.856 378.268 175.334 379.374 175.334 377.302C175.334 376.63 175.978 376.084 177 376.084C178.162 376.084 178.792 376.728 178.848 377.582H179.828C179.744 376.112 178.666 375.244 177.028 375.244C175.418 375.244 174.34 376.182 174.34 377.316C174.34 380.186 178.932 379.08 178.932 380.97C178.932 381.698 178.316 382.286 177.224 382.286C175.978 382.286 175.25 381.684 175.166 380.844H174.158C174.284 382.244 175.502 383.112 177.238 383.112C178.82 383.112 179.898 382.202 179.898 380.97ZM183.227 383H184.221L186.335 376.588L188.449 383H189.429L191.823 375.356H190.857L188.967 382.02L186.853 375.356H185.873L183.731 382.006L181.827 375.356H180.833L183.227 383ZM200.355 379.178C200.355 376.742 198.689 375.244 196.533 375.244C194.391 375.244 192.711 376.742 192.711 379.178C192.711 381.6 194.349 383.112 196.505 383.112C198.661 383.112 200.355 381.6 200.355 379.178ZM193.705 379.178C193.705 377.078 195.063 376.098 196.519 376.098C197.975 376.098 199.347 377.078 199.347 379.178C199.347 381.278 197.947 382.258 196.505 382.258C195.049 382.258 193.705 381.278 193.705 379.178ZM203.121 378.73C203.121 376.812 204.199 376.238 205.473 376.238H205.739V375.216C204.423 375.216 203.541 375.776 203.121 376.714V375.356H202.141V383H203.121V378.73ZM206.766 379.164C206.766 381.558 208.32 383.112 210.42 383.112C211.932 383.112 212.996 382.3 213.444 381.292V383H214.424V372.64H213.444V377.008C212.954 376 211.806 375.244 210.434 375.244C208.32 375.244 206.766 376.77 206.766 379.164ZM213.444 379.178C213.444 381.082 212.17 382.258 210.602 382.258C208.992 382.258 207.76 381.096 207.76 379.164C207.76 377.218 208.992 376.098 210.602 376.098C212.17 376.098 213.444 377.274 213.444 379.178Z" fill="#B7C0C9"/>
<path d="M419.156 376.5C419.156 377.204 418.876 377.88 418.378 378.378C417.88 378.876 417.204 379.156 416.5 379.156C415.796 379.156 415.12 378.876 414.622 378.378C414.124 377.88 413.844 377.204 413.844 376.5C413.844 375.796 414.124 375.12 414.622 374.622C415.12 374.124 415.796 373.844 416.5 373.844C417.204 373.844 417.88 374.124 418.378 374.622C418.876 375.12 419.156 375.796 419.156 376.5Z" fill="#B7C0C9"/>
<path fill-rule="evenodd" clip-rule="evenodd" d="M408 376.5C408 376.5 411.188 370.656 416.5 370.656C421.812 370.656 425 376.5 425 376.5C425 376.5 421.812 382.344 416.5 382.344C411.188 382.344 408 376.5 408 376.5ZM416.5 380.219C417.486 380.219 418.432 379.827 419.13 379.13C419.827 378.432 420.219 377.486 420.219 376.5C420.219 375.514 419.827 374.568 419.13 373.87C418.432 373.173 417.486 372.781 416.5 372.781C415.514 372.781 414.568 373.173 413.87 373.87C413.173 374.568 412.781 375.514 412.781 376.5C412.781 377.486 413.173 378.432 413.87 379.13C414.568 379.827 415.514 380.219 416.5 380.219Z" fill="#B7C0C9"/>
<line x1="66.5" y1="126.5" x2="80.5" y2="126.5" stroke="#1A3B58" stroke-width="3" stroke-linecap="round"/>
</svg>
